<svg width="9" height="12" viewBox="0 0 9 12" fill="none" xmlns="http://www.w3.org/2000/svg">
<path d="M4.50014 11.9583C5.57758 11.9583 6.6109 11.5303 7.37276 10.7685C8.13463 10.0066 8.56264 8.97327 8.56264 7.89583C8.56264 7.42675 8.43806 6.97662 8.29181 6.55792C7.38885 7.45004 6.7031 7.89583 6.23348 7.89583C8.39743 4.10417 7.20848 2.47917 3.95848 0.3125C4.22931 3.02083 2.44398 4.25258 1.71706 4.93671C1.12411 5.49445 0.712396 6.21747 0.535296 7.01201C0.358195 7.80655 0.423879 8.63598 0.72383 9.39275C1.02378 10.1495 1.54416 10.7987 2.21751 11.2562C2.89085 11.7136 3.6861 11.9583 4.50014 11.9583ZM4.88473 2.33562C6.64027 3.82521 6.64893 4.98275 5.2926 7.35904C4.88039 8.08108 5.40202 8.97917 6.23348 8.97917C6.60614 8.97917 6.98314 8.87083 7.38127 8.65687C7.26326 9.10266 7.04338 9.51496 6.73894 9.86131C6.43449 10.2077 6.05381 10.4786 5.62685 10.6528C5.19989 10.8271 4.73831 10.8998 4.27847 10.8653C3.81862 10.8308 3.37306 10.69 2.97687 10.4541C2.58068 10.2181 2.24467 9.8934 1.9953 9.5055C1.74594 9.1176 1.59002 8.67712 1.53984 8.21872C1.48965 7.76032 1.54656 7.29653 1.70608 6.86387C1.86561 6.4312 2.12339 6.04147 2.45914 5.72537C2.52739 5.66146 2.87352 5.35433 2.88868 5.34079C3.11835 5.13496 3.30739 4.95242 3.49427 4.75254C4.16052 4.03862 4.63935 3.24671 4.88418 2.33562H4.88473Z" fill="#F57D31"/>
</svg>
