<svg width="11" height="12" viewBox="0 0 11 12" fill="none" xmlns="http://www.w3.org/2000/svg">
<path d="M4.68742 8.70834H1.16659V7.625H4.68742C5.03341 7.62513 5.37276 7.71993 5.66872 7.89914C5.96468 8.07835 6.20596 8.33513 6.3664 8.64167C6.52685 8.94821 6.60035 9.29281 6.57894 9.63813C6.55754 9.98346 6.44204 10.3163 6.24496 10.6007C6.04788 10.8851 5.77674 11.1101 5.46092 11.2514C5.14509 11.3927 4.79662 11.4448 4.45327 11.4022C4.10991 11.3596 3.78476 11.2239 3.51305 11.0097C3.24134 10.7955 3.03343 10.511 2.91184 10.1871L3.92638 9.8063C3.97847 9.94512 4.06757 10.067 4.18401 10.1589C4.30045 10.2507 4.43979 10.3089 4.58695 10.3271C4.7341 10.3454 4.88344 10.3231 5.01881 10.2625C5.15417 10.202 5.27038 10.1056 5.35485 9.9837C5.43932 9.86183 5.48883 9.71917 5.49802 9.57117C5.50721 9.42317 5.47572 9.27548 5.40696 9.1441C5.33821 9.01272 5.23481 8.90266 5.10798 8.82585C4.98114 8.74904 4.8357 8.7084 4.68742 8.70834ZM1.70825 5.45834H9.02075C9.36674 5.45846 9.7061 5.55326 10.0021 5.73247C10.298 5.91168 10.5393 6.16847 10.6997 6.47501C10.8602 6.78154 10.9337 7.12614 10.9123 7.47147C10.8909 7.81679 10.7754 8.14968 10.5783 8.43405C10.3812 8.71842 10.1101 8.94344 9.79425 9.08473C9.47842 9.22602 9.12995 9.27818 8.7866 9.23557C8.44324 9.19296 8.1181 9.0572 7.84639 8.84301C7.57467 8.62881 7.36676 8.34434 7.24517 8.02042L8.25971 7.63963C8.31181 7.77846 8.4009 7.90038 8.51734 7.99219C8.63378 8.084 8.77313 8.1422 8.92028 8.16047C9.06743 8.17875 9.21678 8.15641 9.35214 8.09587C9.4875 8.03533 9.60371 7.9389 9.68818 7.81703C9.77266 7.69516 9.82217 7.5525 9.83135 7.4045C9.84054 7.2565 9.80905 7.10881 9.74029 6.97743C9.67154 6.84606 9.56814 6.736 9.44131 6.65918C9.31447 6.58237 9.16903 6.54173 9.02075 6.54167H1.70825C1.27728 6.54167 0.86395 6.37046 0.559204 6.06572C0.254457 5.76097 0.083252 5.34765 0.083252 4.91667C0.083252 4.48569 0.254457 4.07237 0.559204 3.76762C0.86395 3.46287 1.27728 3.29167 1.70825 3.29167H6.31242C6.4607 3.29161 6.60614 3.25097 6.73298 3.17415C6.85981 3.09734 6.96321 2.98728 7.03196 2.8559C7.10072 2.72452 7.13221 2.57683 7.12302 2.42884C7.11383 2.28084 7.06432 2.13818 6.97985 2.01631C6.89538 1.89444 6.77917 1.79801 6.64381 1.73747C6.50844 1.67693 6.3591 1.65459 6.21195 1.67286C6.06479 1.69114 5.92545 1.74933 5.80901 1.84114C5.69257 1.93296 5.60347 2.05488 5.55138 2.19371L4.53684 1.81346C4.69309 1.3979 4.9902 1.05033 5.37639 0.831315C5.76258 0.612303 6.21337 0.53573 6.65022 0.61494C7.08706 0.69415 7.48227 0.924121 7.76698 1.26478C8.05169 1.60544 8.20785 2.0352 8.20825 2.47917C8.20825 2.98197 8.00851 3.46419 7.65298 3.81972C7.29744 4.17526 6.81523 4.375 6.31242 4.375H1.70825C1.56459 4.375 1.42682 4.43207 1.32524 4.53365C1.22365 4.63523 1.16659 4.77301 1.16659 4.91667C1.16659 5.06033 1.22365 5.1981 1.32524 5.29968C1.42682 5.40127 1.56459 5.45834 1.70825 5.45834Z" fill="#A891EC"/>
</svg>
