<svg width="11" height="12" viewBox="0 0 11 12" fill="none" xmlns="http://www.w3.org/2000/svg">
<path d="M5.5 0.583336C6.79293 0.583336 8.03291 1.09695 8.94715 2.01119C9.86139 2.92543 10.375 4.16541 10.375 5.45834V9.52084C10.3752 9.92597 10.2456 10.3205 10.0052 10.6466C9.76484 10.9727 9.42631 11.2133 9.03925 11.333C8.6522 11.4527 8.23699 11.4452 7.85448 11.3117C7.47197 11.1782 7.14228 10.9257 6.91375 10.5912C6.77225 10.8418 6.56671 11.0503 6.31817 11.1954C6.06962 11.3405 5.78699 11.417 5.49919 11.417C5.21139 11.417 4.92876 11.3405 4.68021 11.1954C4.43166 11.0503 4.22612 10.8418 4.08463 10.5912C3.86093 10.9177 3.54063 11.166 3.16866 11.3014C2.79669 11.4367 2.39169 11.4521 2.01047 11.3456C1.62925 11.2391 1.29093 11.016 1.04295 10.7075C0.794968 10.399 0.649767 10.0206 0.627708 9.62538L0.625 9.5203V5.45834C0.625 4.16541 1.13861 2.92543 2.05285 2.01119C2.96709 1.09695 4.20707 0.583336 5.5 0.583336ZM5.5 1.66667C4.51689 1.66665 3.5722 2.04849 2.86521 2.73163C2.15822 3.41477 1.74421 4.3458 1.7105 5.32834L1.70833 5.45834V9.49159L1.70942 9.56634C1.71875 9.72872 1.7766 9.88456 1.87549 10.0137C1.97438 10.1428 2.10975 10.2393 2.26408 10.2907C2.41841 10.342 2.5846 10.3459 2.74114 10.3017C2.89768 10.2575 3.03737 10.1674 3.14212 10.043L3.18979 9.98017C3.29351 9.82809 3.43428 9.70494 3.5988 9.62236C3.76332 9.53978 3.94617 9.50048 4.13009 9.50818C4.31401 9.51588 4.49294 9.57032 4.64999 9.66636C4.80703 9.76239 4.93702 9.89687 5.02767 10.0571C5.07465 10.1407 5.143 10.2103 5.22572 10.2588C5.30844 10.3073 5.40256 10.3329 5.49844 10.3331C5.59433 10.3332 5.68853 10.3079 5.77142 10.2597C5.85431 10.2115 5.92289 10.1421 5.97017 10.0587C6.05688 9.90479 6.17992 9.77441 6.32856 9.67893C6.4772 9.58346 6.64694 9.52578 6.82298 9.51093C6.99902 9.49609 7.17602 9.52452 7.33856 9.59375C7.50109 9.66298 7.64423 9.7709 7.7555 9.90813L7.80804 9.97854C7.90207 10.1166 8.03638 10.2224 8.19268 10.2814C8.34898 10.3404 8.51967 10.3498 8.6815 10.3083C8.84332 10.2668 8.98842 10.1764 9.09703 10.0494C9.20563 9.92248 9.27246 9.76514 9.28842 9.59884L9.29167 9.52084V5.45834C9.29167 4.45272 8.89219 3.4883 8.18111 2.77722C7.47004 2.06615 6.50561 1.66667 5.5 1.66667ZM5.5 6C6.09854 6 6.58333 6.60667 6.58333 7.35417C6.58333 8.10167 6.09854 8.70834 5.5 8.70834C4.90146 8.70834 4.41667 8.10167 4.41667 7.35417C4.41667 6.60667 4.90146 6 5.5 6ZM4.14583 3.83334C4.36132 3.83334 4.56798 3.91894 4.72036 4.07131C4.87273 4.22369 4.95833 4.43035 4.95833 4.64584C4.95833 4.86132 4.87273 5.06799 4.72036 5.22036C4.56798 5.37273 4.36132 5.45834 4.14583 5.45834C3.93035 5.45834 3.72368 5.37273 3.57131 5.22036C3.41894 5.06799 3.33333 4.86132 3.33333 4.64584C3.33333 4.43035 3.41894 4.22369 3.57131 4.07131C3.72368 3.91894 3.93035 3.83334 4.14583 3.83334ZM6.85417 3.83334C7.06966 3.83334 7.27632 3.91894 7.42869 4.07131C7.58106 4.22369 7.66667 4.43035 7.66667 4.64584C7.66667 4.86132 7.58106 5.06799 7.42869 5.22036C7.27632 5.37273 7.06966 5.45834 6.85417 5.45834C6.63868 5.45834 6.43202 5.37273 6.27964 5.22036C6.12727 5.06799 6.04167 4.86132 6.04167 4.64584C6.04167 4.43035 6.12727 4.22369 6.27964 4.07131C6.43202 3.91894 6.63868 3.83334 6.85417 3.83334Z" fill="#70559B"/>
</svg>
