<svg width="10" height="11" viewBox="0 0 10 11" fill="none" xmlns="http://www.w3.org/2000/svg">
<path d="M9.875 0.125V1.20833C9.875 6.42296 6.96463 8.79167 3.375 8.79167H1.33996C1.25167 9.28567 1.20833 9.82463 1.20833 10.4167H0.125C0.125 9.67838 0.187833 9.00833 0.312417 8.39517C0.187833 7.69425 0.125 6.74308 0.125 5.54167C0.125 2.55004 2.55004 0.125 5.54167 0.125C6.625 0.125 7.70833 0.666667 9.875 0.125ZM5.54167 1.20833C3.14858 1.20833 1.20833 3.14858 1.20833 5.54167C1.20833 5.73775 1.20996 5.92679 1.21375 6.10825C1.893 5.03683 2.88804 4.19021 4.18967 3.4465L4.727 4.38683C3.18054 5.27083 2.15463 6.27508 1.62867 7.70833H3.375C6.63313 7.70833 8.72179 5.55629 8.79004 1.4185C8.04688 1.49054 7.35625 1.4445 6.50421 1.31667C5.88129 1.22296 5.75888 1.20833 5.54167 1.20833Z" fill="#74CB48"/>
</svg>
