<svg width="11" height="12" viewBox="0 0 11 12" fill="none" xmlns="http://www.w3.org/2000/svg">
<path d="M5.50004 0.583344C8.49166 0.583344 10.9167 3.00839 10.9167 6.00001V8.03884C10.9167 8.24007 10.8606 8.43732 10.7548 8.60847C10.649 8.77963 10.4976 8.91794 10.3176 9.00788L8.75004 9.79168V10.3333C8.75006 10.7478 8.5917 11.1467 8.30734 11.4482C8.02299 11.7498 7.63415 11.9313 7.22037 11.9556L7.09796 11.9583C7.10986 11.8994 7.11783 11.8396 7.12179 11.7796L7.12504 11.6875V11.4167C7.12513 11.1434 7.0219 10.8801 6.83606 10.6797C6.65022 10.4793 6.3955 10.3566 6.12296 10.3361L6.04171 10.3333H4.95837C4.68506 10.3333 4.42182 10.4365 4.22141 10.6223C4.021 10.8082 3.89825 11.0629 3.87775 11.3354L3.87504 11.4167V11.6875C3.87504 11.7801 3.88425 11.8711 3.90212 11.9583H3.87504C3.44406 11.9583 3.03074 11.7871 2.72599 11.4824C2.42125 11.1776 2.25004 10.7643 2.25004 10.3333V9.79168L0.682457 9.00788C0.502372 8.9179 0.350924 8.77951 0.245104 8.60824C0.139285 8.43698 0.0832803 8.23962 0.0833741 8.0383V6.00001C0.0833741 3.00839 2.50842 0.583344 5.50004 0.583344ZM5.50004 1.66668C4.37423 1.66669 3.29261 2.10485 2.4842 2.88839C1.67579 3.67193 1.20406 4.73933 1.16887 5.86459L1.16671 6.00001V8.03884L3.33337 9.12218V9.98397L3.374 9.93847C3.75766 9.52663 4.28679 9.28062 4.84896 9.25272L4.95837 9.25001L6.08125 9.25055L6.20204 9.25597C6.74317 9.29605 7.22579 9.53222 7.58329 9.89351L7.66671 9.98397V9.12218L9.83337 8.03884V6.00001C9.83337 4.85074 9.37683 3.74854 8.56417 2.93588C7.75151 2.12322 6.64931 1.66668 5.50004 1.66668ZM3.33337 5.45834C3.62069 5.45834 3.89624 5.57248 4.09941 5.77564C4.30257 5.97881 4.41671 6.25436 4.41671 6.54168C4.41671 6.82899 4.30257 7.10454 4.09941 7.30771C3.89624 7.51087 3.62069 7.62501 3.33337 7.62501C3.04606 7.62501 2.77051 7.51087 2.56734 7.30771C2.36418 7.10454 2.25004 6.82899 2.25004 6.54168C2.25004 6.25436 2.36418 5.97881 2.56734 5.77564C2.77051 5.57248 3.04606 5.45834 3.33337 5.45834ZM7.66671 5.45834C7.95402 5.45834 8.22957 5.57248 8.43274 5.77564C8.6359 5.97881 8.75004 6.25436 8.75004 6.54168C8.75004 6.82899 8.6359 7.10454 8.43274 7.30771C8.22957 7.51087 7.95402 7.62501 7.66671 7.62501C7.37939 7.62501 7.10384 7.51087 6.90067 7.30771C6.69751 7.10454 6.58337 6.82899 6.58337 6.54168C6.58337 6.25436 6.69751 5.97881 6.90067 5.77564C7.10384 5.57248 7.37939 5.45834 7.66671 5.45834Z" fill="#A43E9E"/>
</svg>
