<svg width="15" height="16" viewBox="0 0 15 16" fill="none" xmlns="http://www.w3.org/2000/svg">
<path d="M8.04424 8.46388L8.05468 8.46704L8.06519 8.4701L8.07577 8.47306L8.08641 8.47592L8.09712 8.47868L8.1079 8.48134L8.11873 8.4839L8.12963 8.48636L8.14059 8.48871L8.15161 8.49096L8.16269 8.49311L8.17382 8.49514L8.18501 8.49707L8.19626 8.4989L8.20756 8.50061L8.21891 8.50222L8.23031 8.50371L8.24176 8.5051L8.25326 8.50637L8.26481 8.50753L8.2764 8.50857L8.28804 8.50951L8.29972 8.51032L8.31144 8.51103L8.3232 8.51161L8.33501 8.51208L8.34685 8.51243L8.35873 8.51267L8.37064 8.51278L8.38259 8.51278L8.39457 8.51266L8.40658 8.51241L8.41862 8.51205L8.43068 8.51156L8.44278 8.51095L8.4549 8.51022L8.46704 8.50936L8.47921 8.50838L8.4914 8.50728L8.50361 8.50605L8.51583 8.5047L8.52807 8.50322L8.54033 8.50161L8.5526 8.49988L8.56488 8.49802L8.57717 8.49603L8.58947 8.49392L8.60178 8.49168L8.6141 8.48931L8.62641 8.4868L8.63873 8.48418L8.65106 8.48142L8.66338 8.47853L8.6757 8.47551L8.68801 8.47236L8.70033 8.46908L8.71263 8.46567L8.72493 8.46213L8.73721 8.45846L8.74949 8.45466L8.76175 8.45072L8.77399 8.44666L8.78622 8.44246L8.79843 8.43813L8.81062 8.43367L8.82279 8.42908L8.83494 8.42435L8.84706 8.4195L8.85916 8.41451L8.87123 8.40939L8.88327 8.40414L8.89527 8.39875L8.90725 8.39323L8.91919 8.38759L8.93109 8.38181L8.94296 8.3759L8.95478 8.36985L8.96657 8.36368L8.97831 8.35737L8.99001 8.35094L9.00166 8.34437L9.01326 8.33767L9.02481 8.33084L9.03631 8.32388L9.04776 8.3168L9.05916 8.30958L9.0705 8.30223L9.08178 8.29476L9.093 8.28715L9.10416 8.27942L9.11526 8.27156L9.12629 8.26357L9.13726 8.25546L9.14815 8.24721L9.15898 8.23885L9.16974 8.23035L9.18043 8.22173L9.19104 8.21299L9.20157 8.20412L9.21203 8.19513L9.22241 8.18602L9.2327 8.17678L9.24292 8.16742L9.25305 8.15794L9.26309 8.14834L9.27305 8.13862L9.28292 8.12877L9.2927 8.11881L9.30238 8.10874L9.31197 8.09854L9.32147 8.08823L9.33087 8.0778L9.34017 8.06726L9.34937 8.0566L9.35847 8.04583L9.36747 8.03494L9.37636 8.02395L9.38515 8.01284L9.39382 8.00162L9.40239 7.99029L9.41085 7.97886L9.4192 7.96731L9.42743 7.95566L9.43555 7.94391L9.44355 7.93205L9.45143 7.92009L9.4592 7.90802L9.46684 7.89585L9.47436 7.88358L9.48175 7.87121L9.48902 7.85874L9.49617 7.84618L9.50319 7.83352L9.51007 7.82076L9.51683 7.80791L9.52345 7.79497L9.52994 7.78193L9.5363 7.76881L9.54252 7.75559L9.5486 7.74228L9.55455 7.72889L9.56035 7.71542L9.56602 7.70185L9.57154 7.68821L9.57691 7.67448L9.58214 7.66067L9.58723 7.64679L9.59217 7.63282L9.59696 7.61878L9.6016 7.60466L9.60609 7.59047L9.61043 7.5762L9.61461 7.56186L9.61864 7.54746L9.62252 7.53298L9.62624 7.51844L9.6298 7.50383L9.6332 7.48916L9.63644 7.47443L9.63953 7.45963L9.64245 7.44478L9.6452 7.42986L9.6478 7.41489L9.65023 7.39987L9.6525 7.38479L9.65459 7.36966L9.65653 7.35447L9.65829 7.33924L9.65988 7.32396L9.66131 7.30864L9.66256 7.29327L9.66365 7.27786L9.66456 7.26241L9.66529 7.24692L9.66586 7.23139L9.66625 7.21583L9.66646 7.20023L9.6665 7.1846L9.66636 7.16893L9.66604 7.15324L9.66555 7.13752L9.66488 7.12178L9.66402 7.10601L9.66299 7.09022L9.66178 7.07441L9.66039 7.05858L9.65881 7.04273L9.65706 7.02687L9.65512 7.01099L9.653 6.99511L9.65069 6.97921L9.6482 6.9633L9.64553 6.94739L9.64268 6.93148L9.63963 6.91556L9.63641 6.89964L9.63299 6.88372L9.62939 6.8678L9.62561 6.85189L9.62164 6.83599L9.61748 6.82009L9.61314 6.80421L9.60861 6.78833L9.60389 6.77247L9.59898 6.75663L9.59389 6.7408L9.58861 6.725L9.58314 6.70921L9.57748 6.69345L9.57164 6.67772L9.56561 6.66201L9.55939 6.64633L9.55298 6.63068L9.54638 6.61506L9.5396 6.59948L9.53263 6.58393L9.52547 6.56843L9.51813 6.55296L9.5106 6.53754L9.50288 6.52216L9.49497 6.50683L9.48688 6.49154L9.4786 6.47631L9.47014 6.46113L9.46149 6.446L9.45265 6.43093L9.44363 6.41591L9.43443 6.40096L9.42504 6.38606L9.41546 6.37123L9.40571 6.35647L9.39577 6.34177L9.38565 6.32714L9.37534 6.31258L9.36486 6.2981L9.35419 6.28369L9.34335 6.26936L9.33232 6.2551L9.32112 6.24093L9.30974 6.22684L9.29818 6.21283L9.28644 6.19891L9.27452 6.18508L9.26243 6.17133L9.25017 6.15768L9.23773 6.14413L9.22512 6.13066L9.21234 6.1173L9.19938 6.10403L9.18626 6.09087L9.17296 6.07781L9.15949 6.06485L9.14586 6.052L9.13206 6.03926L9.1181 6.02663L9.10397 6.0141L9.08967 6.0017L9.07521 5.98941L9.06059 5.97723L9.04581 5.96518L9.03087 5.95324L9.01578 5.94143L9.00052 5.92974L8.98511 5.91818L8.96954 5.90675L8.95382 5.89544L8.93795 5.88427L8.92192 5.87323L8.90575 5.86232L8.88943 5.85155L8.87296 5.84092L8.85634 5.83042L8.83958 5.82007L8.82268 5.80986L8.80563 5.7998L8.78845 5.78988L8.77113 5.78011L8.75366 5.77048L8.73607 5.76101L8.71834 5.75169L8.70047 5.74252L8.68248 5.73351L8.66435 5.72465L8.6461 5.71596L8.62772 5.70742L8.60921 5.69904L8.59059 5.69083L8.57184 5.68278L8.55297 5.67489L8.53398 5.66718L8.51488 5.65963L8.49566 5.65225L8.47633 5.64504L8.45689 5.638L8.43734 5.63114L8.41768 5.62445L8.39791 5.61794L8.37804 5.61161L8.35807 5.60545L8.33801 5.59947L8.31784 5.59368L8.29757 5.58807L8.27722 5.58264L8.25676 5.5774L8.23622 5.57234L8.2156 5.56747L8.19488 5.56279L8.17408 5.5583L8.1532 5.554L8.13224 5.54989L8.1112 5.54597L8.09008 5.54224L8.06889 5.53871L8.04763 5.53538L8.0263 5.53224L8.0049 5.52931L7.98343 5.52656L7.9619 5.52402L7.94032 5.52168L7.91867 5.51954L7.89696 5.5176L7.8752 5.51587L7.85339 5.51434L7.83153 5.51301L7.80962 5.51189L7.78767 5.51097L7.76567 5.51027L7.74363 5.50976L7.72155 5.50947L7.69944 5.50939L7.67729 5.50951L7.65511 5.50985L7.6329 5.51039L7.61066 5.51115L7.5884 5.51212L7.56612 5.5133L7.54382 5.51469L7.5215 5.5163L7.49916 5.51812L7.47681 5.52016L7.45445 5.52241L7.43209 5.52487L7.40971 5.52755L7.38734 5.53045L7.36496 5.53356L7.34259 5.53689L7.32022 5.54043L7.29785 5.5442L7.2755 5.54817L7.25316 5.55237L7.23083 5.55678L7.20852 5.56142L7.18623 5.56627L7.16395 5.57133L7.14171 5.57662L7.11949 5.58212L7.0973 5.58784L7.07514 5.59378L7.05301 5.59994L7.03092 5.60631L7.00887 5.61291L6.98686 5.61972L6.9649 5.62675L6.94298 5.634L6.92111 5.64146L6.8993 5.64914L6.87753 5.65704L6.85583 5.66516L6.83418 5.67349L6.8126 5.68204L6.79108 5.6908L6.76962 5.69978L6.74824 5.70898L6.72693 5.71839L6.70569 5.72801L6.68453 5.73785L6.66345 5.74791L6.64245 5.75817L6.62153 5.76865L6.6007 5.77934L6.57997 5.79024L6.55932 5.80136L6.53877 5.81268L6.51831 5.82421L6.49796 5.83596L6.4777 5.84791L6.45755 5.86007L6.43751 5.87243L6.41758 5.885L6.39775 5.89778L6.37805 5.91076L6.35846 5.92394L6.33899 5.93733L6.31964 5.95092L6.30041 5.96471L6.28131 5.97871L6.26234 5.9929L6.2435 6.00728L6.2248 6.02187L6.20623 6.03665L6.1878 6.05163L6.16951 6.0668L6.15136 6.08216L6.13336 6.09772L6.1155 6.11347L6.0978 6.1294L6.08025 6.14552L6.06286 6.16184L6.04562 6.17833L6.02854 6.19501L6.01162 6.21188L5.99487 6.22892L5.97828 6.24615L5.96186 6.26356L5.94561 6.28114L5.92953 6.2989L5.91363 6.31684L5.89791 6.33494L5.88237 6.35322L5.867 6.37168L5.85183 6.3903L5.83683 6.40908L5.82203 6.42804L5.80741 6.44715L5.79299 6.46643L5.77876 6.48587L5.76473 6.50548L5.7509 6.52523L5.73726 6.54515L5.72383 6.56521L5.7106 6.58544L5.69758 6.60581L5.68477 6.62633L5.67217 6.64699L5.65977 6.66781L5.6476 6.68876L5.63564 6.70986L5.62389 6.7311L5.61237 6.75247L5.60106 6.77398L5.58998 6.79563L5.57913 6.8174L5.5685 6.83931L5.5581 6.86134L5.54793 6.8835L5.53799 6.90579L5.52828 6.92819L5.51881 6.95072L5.50958 6.97336L5.50058 6.99612L5.49182 7.01899L5.48331 7.04197L5.47504 7.06506L5.46701 7.08826L5.45923 7.11156L5.45169 7.13497L5.4444 7.15847L5.43737 7.18208L5.43058 7.20578L5.42405 7.22957L5.41777 7.25345L5.41175 7.27742L5.40599 7.30148L5.40048 7.32562L5.39523 7.34984L5.39024 7.37415L5.38552 7.39853L5.38106 7.42298L5.37686 7.44751L5.37293 7.4721L5.36926 7.49677L5.36586 7.52149L5.36273 7.54628L5.35987 7.57113L5.35727 7.59604L5.35495 7.621L5.35291 7.64601L5.35113 7.67108L5.34963 7.69619L5.3484 7.72134L5.34746 7.74654L5.34678 7.77177L5.34638 7.79705L5.34627 7.82235L5.34643 7.84769L5.34686 7.87306L5.34758 7.89845L5.34858 7.92387L5.34986 7.94931L5.35143 7.97477L5.35327 8.00024L5.3554 8.02573L5.35781 8.05122L5.3605 8.07673L5.36348 8.10224L5.36674 8.12775L5.37029 8.15326L5.37412 8.17877L5.37824 8.20427L5.38265 8.22976L5.38733 8.25524L5.39231 8.28071L5.39757 8.30616L5.40312 8.3316L5.40895 8.35701L5.41507 8.38239L5.42148 8.40775L5.42818 8.43308L5.43516 8.45837L5.44242 8.48363L5.44998 8.50885L5.45782 8.53402L5.46594 8.55916L5.47435 8.58424L5.48305 8.60928L5.49203 8.63426L5.5013 8.65919L5.51086 8.68406L5.52069 8.70887L5.53082 8.73361L5.54122 8.75829L5.55191 8.7829L5.56288 8.80744L5.57414 8.8319L5.58568 8.85629L5.59749 8.88059L5.60959 8.90481L5.62197 8.92895L5.63463 8.953L5.64757 8.97695L5.66078 9.00081L5.67428 9.02458L5.68805 9.04824L5.70209 9.07181L5.71641 9.09526L5.73101 9.11861L5.74587 9.14185L5.76101 9.16498L5.77642 9.18799L5.79211 9.21088L5.80806 9.23365L5.82428 9.2563L5.84076 9.27882L5.85751 9.30121L5.87453 9.32347L5.89181 9.34559L5.90935 9.36758L5.92716 9.38943L5.94522 9.41113L5.96354 9.43269L5.98212 9.4541L6.00096 9.47536L6.02005 9.49647L6.03939 9.51742L6.05899 9.53822L6.07883 9.55885L6.09893 9.57932L6.11927 9.59963L6.13985 9.61976L6.16068 9.63973L6.18175 9.65952L6.20306 9.67914L6.22462 9.69858L6.2464 9.71783L6.26843 9.73691L6.29068 9.7558L6.31317 9.7745L6.33589 9.79301L6.35884 9.81133L6.38201 9.82945L6.40541 9.84738L6.42903 9.8651L6.45287 9.88263L6.47692 9.89995L6.5012 9.91706L6.52568 9.93397L6.55038 9.95066L6.57529 9.96714L6.60041 9.9834L6.62573 9.99945L6.65126 10.0153L6.67698 10.0309L6.70291 10.0463L6.72903 10.0614L6.75535 10.0763L6.78186 10.091L6.80855 10.1055L6.83544 10.1197L6.86251 10.1337L6.88976 10.1475L6.91719 10.161L6.9448 10.1743L6.97258 10.1873L7.00054 10.2001L7.02866 10.2126L7.05696 10.2249L7.08541 10.2369L7.11403 10.2487L7.14281 10.2602L7.17175 10.2715L7.20084 10.2825L7.23008 10.2932L7.25946 10.3037L7.289 10.3139L7.31868 10.3239L7.34849 10.3335L7.37845 10.343L7.40853 10.3521L7.43876 10.361L7.4691 10.3696L7.49958 10.3779L7.53018 10.3859L7.56089 10.3937L7.59173 10.4012L7.62268 10.4084L7.65373 10.4153L7.6849 10.422L7.71617 10.4283L7.74755 10.4344L7.77902 10.4402L7.81059 10.4457L7.84225 10.4509L7.874 10.4558L7.90583 10.4605L7.93775 10.4648L7.96975 10.4688L8.00183 10.4726L8.03398 10.476L8.0662 10.4792L8.09849 10.482L8.13084 10.4846L8.16325 10.4868L8.19572 10.4888L8.22825 10.4904L8.26082 10.4918L8.29344 10.4928L8.32611 10.4936L8.35882 10.494L8.39156 10.4941L8.42434 10.494L8.45715 10.4935L8.48999 10.4927L8.52285 10.4916L8.55573 10.4902L8.58863 10.4885L8.62155 10.4864L8.65447 10.4841L8.68741 10.4815L8.72034 10.4785L8.75328 10.4753L8.78621 10.4717L8.81914 10.4678L8.85205 10.4636L8.88495 10.4591L8.91784 10.4543L8.95071 10.4491L8.98355 10.4437L9.01636 10.4379L9.04914 10.4319L9.08189 10.4255L9.1146 10.4188L9.14727 10.4118L9.1799 10.4045L9.21247 10.3968L9.245 10.3889L9.27747 10.3806L9.30988 10.3721L9.34223 10.3632L9.37451 10.354L9.40672 10.3445L9.43886 10.3347L9.47093 10.3246L9.50291 10.3142L9.53481 10.3034L9.56663 10.2924L9.59835 10.281L9.62998 10.2694L9.66152 10.2574L9.69295 10.2451L9.72428 10.2326L9.7555 10.2197L9.7866 10.2065L9.8176 10.193L9.84848 10.1792L9.87923 10.1651L9.90986 10.1507L9.94036 10.136L9.97073 10.121L10.001 10.1057L10.0311 10.0902L10.061 10.0743L10.0908 10.0581L10.1205 10.0416L10.15 10.0249L10.1793 10.0078L10.2085 9.99047L10.2376 9.97283L10.2664 9.95491L10.2951 9.9367L10.3237 9.91821L10.352 9.89943L10.3802 9.88038L10.4082 9.86104L10.436 9.84142L10.4636 9.82152L10.491 9.80135L10.5182 9.7809L10.5452 9.76018L10.5721 9.73919L10.5987 9.71793L10.6251 9.69639L10.6513 9.6746L10.6773 9.65254L10.7031 9.63021L10.7286 9.60762L10.7539 9.58478L10.779 9.56168L10.8039 9.53832L10.8285 9.51471L10.8529 9.49084L10.8771 9.46673L10.901 9.44237L10.9247 9.41776L10.9481 9.39291L10.9713 9.36782L10.9942 9.34249L11.0169 9.31692L11.0393 9.29112L11.0615 9.26508L11.0833 9.23882L11.105 9.21232L11.1263 9.1856L11.1474 9.15866L11.1682 9.13149L11.1887 9.10411L11.2089 9.07651L11.2289 9.0487L11.2486 9.02067L11.2679 8.99244L11.287 8.964L11.3058 8.93536L11.3243 8.90651L11.3425 8.87747L11.3604 8.84823L11.378 8.8188L11.3953 8.78918L11.4123 8.75937L11.4289 8.72937L11.4453 8.69919L11.4613 8.66884L11.4771 8.6383L11.4925 8.6076L11.5076 8.57672L11.5223 8.54567L11.5367 8.51446L11.5508 8.48308L11.5646 8.45155L11.5781 8.41986L11.5912 8.38801L11.6039 8.35602L11.6164 8.32388L11.6284 8.29159L11.6402 8.25917L11.6516 8.2266L11.6626 8.1939L11.6734 8.16107L11.6837 8.12811L11.6937 8.09502L11.7034 8.06181L11.7127 8.02848L11.7216 7.99504L11.7302 7.96148L11.7384 7.92782L11.7463 7.89405L11.7538 7.86017L11.7609 7.8262L11.7677 7.79213L11.7741 7.75797L11.7802 7.72371L11.7858 7.68937L11.7911 7.65495L11.7961 7.62045L11.8006 7.58588L11.8048 7.55123L11.8086 7.51651L11.812 7.48173L11.8151 7.44688L11.8178 7.41198L11.8201 7.37702L11.822 7.34201L11.8235 7.30695L11.8247 7.27185L11.8254 7.23671L11.8258 7.20152L11.8258 7.16631L11.8255 7.13107L11.8247 7.0958L11.8235 7.0605L11.822 7.02519L11.8201 6.98986L11.8178 6.95452L11.8151 6.91917L11.812 6.88381L11.8085 6.84846L11.8046 6.8131L11.8004 6.77776L11.7957 6.74242L11.7907 6.7071L11.7852 6.67179L11.7794 6.6365L11.7732 6.60124L11.7666 6.56601L11.7596 6.53081L11.7522 6.49564L11.7445 6.46051L11.7363 6.42543L11.7278 6.39039L11.7188 6.3554L11.7095 6.32047L11.6998 6.2856L11.6897 6.25078L11.6792 6.21603L11.6683 6.18135L11.657 6.14675L11.6453 6.11222L11.6333 6.07776L11.6208 6.0434L11.608 6.00912L11.5948 5.97493L11.5812 5.94083L11.5673 5.90684L11.5529 5.87294L11.5382 5.83915L11.523 5.80548L11.5075 5.77191L11.4917 5.73846L11.4754 5.70513L11.4588 5.67193L11.4418 5.63885L11.4244 5.6059L11.4066 5.57309L11.3885 5.54042L11.37 5.50789L11.3511 5.4755L11.3319 5.44327L11.3122 5.41119L11.2923 5.37926L11.2719 5.3475L11.2512 5.31589L11.2301 5.28446L11.2087 5.25319L11.1869 5.2221L11.1648 5.19119L11.1423 5.16046L11.1194 5.12991L11.0962 5.09955L11.0727 5.06939L11.0488 5.03941L11.0245 5.00964L10.9999 4.98007L10.975 4.9507L10.9497 4.92154L10.9241 4.8926L10.8981 4.86387L10.8718 4.83535L10.8452 4.80706L10.8183 4.779L10.791 4.75116L10.7634 4.72355L10.7354 4.69618L10.7072 4.66905L10.6786 4.64216L10.6497 4.61552L10.6205 4.58912L10.591 4.56297L10.5612 4.53708L10.5311 4.51144L10.5007 4.48606L10.4699 4.46095L10.4389 4.4361L10.4076 4.41152L10.376 4.38722L10.344 4.36319L10.3118 4.33943L10.2794 4.31596L10.2466 4.29277L10.2136 4.26987L10.1803 4.24726L10.1467 4.22494L10.1128 4.20292L10.0787 4.18119L10.0443 4.15976L10.0096 4.13864L9.97473 4.11782L9.93957 4.09732L9.90415 4.07712L9.86849 4.05724L9.83258 4.03767L9.79644 4.01842L9.76005 3.9995L9.72343 3.98089L9.68658 3.96262L9.6495 3.94467L9.61219 3.92705L9.57466 3.90977L9.53692 3.89282L9.49896 3.87622L9.4608 3.85995L9.42242 3.84402L9.38384 3.82844L9.34506 3.81321L9.30609 3.79832L9.26692 3.78379L9.22757 3.76961L9.18803 3.75578L9.1483 3.74232L9.10841 3.72921L9.06833 3.71646L9.02809 3.70408L8.98768 3.69206L8.94711 3.68041L8.90638 3.66912L8.8655 3.65821L8.82447 3.64767L8.78329 3.6375L8.74197 3.62771L8.70051 3.61829L8.65892 3.60925L8.61719 3.6006L8.57534 3.59232L8.53337 3.58443L8.49128 3.57692L8.44908 3.5698L8.40677 3.56307L8.36435 3.55672L8.32183 3.55076L8.27921 3.5452L8.2365 3.54003L8.19371 3.53525L8.15082 3.53086L8.10786 3.52687L8.06482 3.52328L8.02172 3.52008L7.97854 3.51729L7.9353 3.51489L7.892 3.51289L7.84865 3.5113L7.80525 3.5101L7.7618 3.50931L7.71831 3.50893L7.67479 3.50894L7.63123 3.50937L7.58765 3.51019L7.54404 3.51143L7.50041 3.51307L7.45677 3.51511L7.41312 3.51757L7.36947 3.52043L7.32581 3.5237L7.28215 3.52738L7.23851 3.53146L7.19487 3.53596L7.15126 3.54087L7.10766 3.54618L7.06409 3.5519L7.02055 3.55804L6.97705 3.56458L6.93358 3.57153L6.89016 3.57889L6.84679 3.58666L6.80347 3.59484L6.7602 3.60343L6.717 3.61243L6.67387 3.62183L6.63081 3.63165L6.58782 3.64187L6.54491 3.65249L6.50209 3.66353L6.45936 3.67497L6.41672 3.68681L6.37418 3.69907L6.33174 3.71172L6.2894 3.72478L6.24718 3.73824L6.20508 3.75211L6.1631 3.76637L6.12124 3.78104L6.07951 3.79611L6.03792 3.81157L5.99646 3.82744L5.95515 3.8437L5.91399 3.86035L5.87297 3.8774L5.83212 3.89485L5.79142 3.91268L5.75089 3.93091L5.71053 3.94953L5.67034 3.96854L5.63034 3.98793L5.59051 4.00771L5.55087 4.02787L5.51143 4.04842L5.47217 4.06935L5.43312 4.09065L5.39428 4.11234L5.35564 4.1344L5.31721 4.15684L5.27901 4.17965L5.24102 4.20283L5.20326 4.22638L5.16573 4.2503L5.12844 4.27458L5.09138 4.29923L5.05456 4.32424L5.01799 4.34961L4.98168 4.37534L4.94561 4.40142L4.90981 4.42786L4.87427 4.45465L4.83899 4.48179L4.80399 4.50927L4.76926 4.5371L4.73481 4.56527L4.70064 4.59379L4.66676 4.62263L4.63317 4.65182L4.59988 4.68134L4.56688 4.71118L4.53419 4.74136L4.5018 4.77186L4.46972 4.80268L4.43796 4.83382L4.40651 4.86528L4.37538 4.89705L4.34458 4.92913L4.31411 4.96152L4.28396 4.99422L4.25416 5.02722L4.22469 5.06052L4.19556 5.09412L4.16678 5.12801L4.13835 5.16219L4.11028 5.19666L4.08255 5.23142L4.05519 5.26645L4.02819 5.30177L4.00156 5.33736L3.9753 5.37322L3.94941 5.40935L3.92389 5.44575L3.89876 5.4824L3.87401 5.51932L3.84964 5.55649L3.82566 5.59392L3.80207 5.63159L3.77888 5.66951L3.75608 5.70766L3.73368 5.74606L3.71169 5.78469L3.6901 5.82355L3.66892 5.86264L3.64815 5.90195L3.6278 5.94148L3.60786 5.98123L3.58835 6.02119L3.56925 6.06136L3.55058 6.10173L3.53234 6.1423L3.51453 6.18307L3.49714 6.22404L3.4802 6.26519L3.46369 6.30653L3.44762 6.34805L3.43199 6.38974L3.4168 6.43161L3.40206 6.47365L3.38777 6.51586L3.37393 6.55822L3.36054 6.60074L3.3476 6.64342L3.33512 6.68624L3.3231 6.72921L3.31154 6.77232L3.30044 6.81557L3.2898 6.85894L3.27963 6.90245L3.26993 6.94608L3.2607 6.98983L3.25193 7.03369L3.24364 7.07766L3.23582 7.12174L3.22848 7.16592L3.22161 7.2102L3.21522 7.25458L3.20931 7.29904L3.20388 7.34358L3.19893 7.38821L3.19446 7.43291L3.19048 7.47768L3.18698 7.52252L3.18397 7.56742L3.18145 7.61238L3.17941 7.65739L3.17786 7.70245L3.17681 7.74755L3.17624 7.7927L3.17616 7.83788L3.17658 7.88309L3.17749 7.92832L3.17889 7.97358L3.18078 8.01885L3.18317 8.06413L3.18606 8.10943L3.18944 8.15472L3.19331 8.20001L3.19769 8.2453L3.20255 8.29058L3.20792 8.33584L3.21377 8.38108L3.22013 8.42629L3.22698 8.47148L3.23433 8.51663L3.24218 8.56174L3.25052 8.60681L3.25936 8.65183L3.26869 8.69679L3.27852 8.7417L3.28884 8.78655L3.29966 8.83133L3.31098 8.87604L3.32279 8.92067L3.33509 8.96522L3.34788 9.00969L3.36117 9.05407L3.37495 9.09835L3.38922 9.14253L3.40398 9.18661L3.41923 9.23058L3.43497 9.27443L3.4512 9.31817L3.46791 9.36179L3.48511 9.40527L3.50279 9.44863L3.52096 9.49185L3.5396 9.53493L3.55873 9.57786L3.57834 9.62064L3.59843 9.66327L3.61899 9.70574L3.64003 9.74804L3.66155 9.79018L3.68353 9.83214L3.70599 9.87393L3.72891 9.91553L3.75231 9.95695L3.77617 9.99817L3.80049 10.0392L3.82527 10.08L3.85052 10.1207L3.87622 10.1611L3.90238 10.2013L3.929 10.2413L3.95606 10.281L3.98358 10.3206L4.01154 10.3599L4.03995 10.399L4.0688 10.4378L4.09809 10.4764L4.12783 10.5147L4.15799 10.5528L4.18859 10.5907L4.21963 10.6282L4.25109 10.6655L4.28297 10.7026L4.31528 10.7394L4.34801 10.7758L4.38116 10.8121L4.41472 10.848L4.4487 10.8836L4.48308 10.919L4.51787 10.954L4.55306 10.9887L4.58866 11.0232L4.62465 11.0573L4.66103 11.0911L4.6978 11.1246L4.73497 11.1578L4.77251 11.1907L4.81044 11.2232L4.84874 11.2554L4.88742 11.2873L4.92647 11.3188L4.96588 11.35L5.00566 11.3808L5.0458 11.4113L5.0863 11.4414L5.12715 11.4712L5.16835 11.5006L5.20989 11.5296L5.25178 11.5583L5.294 11.5866L5.33656 11.6145L5.37944 11.6421L5.42266 11.6693L5.46619 11.696L5.51004 11.7224L5.55421 11.7485L5.59869 11.7741L5.64347 11.7993L5.68856 11.8241L5.73394 11.8485L5.77962 11.8725L5.82558 11.8961L5.87183 11.9193L5.91836 11.9421L5.96517 11.9644L6.01224 11.9864L6.05959 12.0079L6.1072 12.029L6.15506 12.0496L6.20318 12.0698L6.25155 12.0896L6.30017 12.109L6.34902 12.1279L6.39811 12.1464L6.44743 12.1644L6.49697 12.182L6.54674 12.1991L6.59672 12.2158L6.64691 12.232L6.69731 12.2477L6.74792 12.2631L6.79872 12.2779L6.84971 12.2923L6.90088 12.3062L6.95224 12.3197L7.00378 12.3327L7.05549 12.3452L7.10737 12.3572L7.15941 12.3688L7.2116 12.3799L7.26395 12.3905L7.31644 12.4006L7.36908 12.4103L7.42185 12.4194L7.47476 12.4281L7.52778 12.4363L7.58093 12.4441L7.6342 12.4513L7.68757 12.458L7.74106 12.4643L7.79464 12.47L7.84831 12.4753L7.90207 12.48L7.95592 12.4843L8.00984 12.4881L8.06384 12.4913L8.11791 12.4941L8.17203 12.4964L8.22622 12.4982L8.28045 12.4994L8.33473 12.5002L8.38905 12.5005L8.44341 12.5002L8.49779 12.4995L8.5522 12.4982L8.60663 12.4965L8.66107 12.4942L8.71552 12.4915L8.76997 12.4882L8.82441 12.4844L8.87885 12.4801L8.93327 12.4753L8.98767 12.47L9.04204 12.4642L9.09638 12.4579L9.15069 12.4511L9.20495 12.4437L9.25917 12.4359L9.31333 12.4275L9.36743 12.4187L9.42147 12.4093L9.47543 12.3994L9.52932 12.3891L9.58313 12.3782L9.63685 12.3668L9.69048 12.3549L9.74401 12.3425L9.79743 12.3296L9.85075 12.3162L9.90395 12.3023L9.95703 12.2879L10.01 12.273L10.0628 12.2576L10.1155 12.2417L10.168 12.2253L10.2204 12.2084L10.2727 12.191L10.3248 12.1731L10.3767 12.1547L10.4284 12.1358L10.48 12.1164L10.5314 12.0966L10.5826 12.0762L10.6336 12.0554L10.6844 12.0341L10.735 12.0123L10.7854 11.99L10.8356 11.9672L10.8856 11.944L10.9353 11.9203L10.9848 11.8961L11.0341 11.8714L11.0831 11.8463L11.1319 11.8207L11.1805 11.7946L11.2288 11.768L11.2768 11.741L11.3246 11.7136L11.372 11.6857L11.4192 11.6573L11.4662 11.6285L11.5128 11.5992L11.5592 11.5694L11.6052 11.5393L11.651 11.5086L11.6964 11.4776L11.7415 11.4461L11.7864 11.4141L11.8308 11.3818L11.875 11.349L11.9188 11.3157L11.9623 11.2821L12.0055 11.248L12.0483 11.2135L12.0907 11.1786L12.1328 11.1432L12.1746 11.1075L12.216 11.0714L12.257 11.0348L12.2976 10.9979L12.3378 10.9605L12.3777 10.9228L12.4172 10.8846L12.4563 10.8461L12.495 10.8072L12.5332 10.7679L12.5711 10.7283L12.6086 10.6882L12.6456 10.6478L12.6823 10.6071L12.7185 10.5659L12.7543 10.5244L12.7896 10.4826L12.8245 10.4404L12.859 10.3978L12.8931 10.355L12.9267 10.3117L12.9598 10.2682L12.9925 10.2243L13.0247 10.1801L13.0564 10.1355L13.0877 10.0907L13.1186 10.0455L13.1489 9.99999L13.1788 9.9542L13.2082 9.9081L13.2371 9.86171L13.2655 9.81502L13.2934 9.76805L13.3208 9.72079L13.3477 9.67325L13.3742 9.62543L13.4001 9.57734L13.4255 9.52899L13.4504 9.48037L13.4748 9.4315L13.4986 9.38237L13.522 9.333L13.5448 9.28338L13.5671 9.23353L13.5889 9.18344L13.6101 9.13312L13.6308 9.08257L13.6509 9.03181L13.6706 8.98084L13.6896 8.92965L13.7082 8.87826L13.7261 8.82667L13.7436 8.77489L13.7604 8.72291L13.7767 8.67075L13.7925 8.61842L13.8077 8.5659L13.8223 8.51322L13.8364 8.46038L13.8499 8.40737L13.8628 8.35422L13.8752 8.30091L13.887 8.24746L13.8982 8.19387L13.9088 8.14015L13.9189 8.08631L13.9284 8.03234L13.9373 7.97825L13.9456 7.92405L13.9533 7.86975L13.9605 7.81534L13.967 7.76085L13.973 7.70626L13.9784 7.65158L13.9831 7.59683L13.9873 7.542L13.9909 7.48711L13.9939 7.43215L13.9963 7.37714L13.9982 7.32207L13.9994 7.26696L14 7.21181L14 7.15662L13.9994 7.10141L13.9982 7.04617L13.9964 6.99091L13.9941 6.93564L13.9911 6.88036L13.9875 6.82508L13.9833 6.76981L13.9785 6.71454L13.9731 6.65929L13.9671 6.60407L13.9605 6.54886L13.9533 6.49369L13.9454 6.43856L13.937 6.38347L13.928 6.32843L13.9184 6.27345L13.9081 6.21853L13.8973 6.16367L13.8859 6.10888L13.8738 6.05417L13.8612 5.99955L13.848 5.94501L13.8341 5.89057L13.8197 5.83622L13.8047 5.78198L13.789 5.72786L13.7728 5.67385L13.756 5.61996L13.7386 5.5662L13.7206 5.51257L13.702 5.45909L13.6828 5.40574L13.663 5.35255L13.6426 5.29952L13.6217 5.24664L13.6001 5.19393L13.578 5.1414L13.5553 5.08904L13.532 5.03686L13.5081 4.98488L13.4837 4.93309L13.4586 4.8815L13.433 4.83011L13.4069 4.77894L13.3801 4.72798L13.3528 4.67724L13.325 4.62673L13.2965 4.57645L13.2675 4.52641L13.238 4.47662L13.2079 4.42707L13.1772 4.37777L13.146 4.32874L13.1142 4.27997L13.0819 4.23147L13.0491 4.18324L13.0157 4.13529L12.9817 4.08763L12.9473 4.04026L12.9123 3.99318L12.8767 3.9464L12.8407 3.89993L12.8041 3.85377L12.767 3.80793L12.7294 3.7624L12.6912 3.71721L12.6526 3.67234L12.6134 3.62781L12.5738 3.58361L12.5336 3.53977L12.493 3.49627L12.4518 3.45313L12.4102 3.41034L12.3681 3.36792L12.3255 3.32587L12.2824 3.2842L12.2388 3.2429L12.1948 3.20199L12.1503 3.16146L12.1053 3.12132L12.0599 3.08158L12.0141 3.04225L11.9677 3.00331L11.921 2.96479L11.8738 2.92668L11.8261 2.88899L11.778 2.85172L11.7295 2.81488L11.6806 2.77847L11.6312 2.7425L11.5815 2.70696L11.5313 2.67187L11.4807 2.63723L11.4297 2.60303L11.3783 2.5693L11.3265 2.53602L11.2744 2.5032L11.2218 2.47086L11.1689 2.43898L11.1156 2.40758L11.0619 2.37665L11.0079 2.34621L10.9535 2.31626L10.8988 2.28679L10.8437 2.25782L10.7883 2.22934L10.7325 2.20136L10.6764 2.17388L10.62 2.14692L10.5632 2.12046L10.5062 2.09451L10.4488 2.06908L10.3911 2.04417L10.3331 2.01978L10.2749 1.99591L10.2163 1.97258L10.1575 1.94977L10.0983 1.9275L10.039 1.90577L9.97931 1.88457L9.91939 1.86392L9.85923 1.84382L9.79881 1.82426L9.73816 1.80525L9.67726 1.78679L9.61614 1.76889L9.55479 1.75155L9.49323 1.73476L9.43145 1.71854L9.36946 1.70289L9.30728 1.6878L9.2449 1.67328L9.18233 1.65933L9.11958 1.64595L9.05665 1.63315L8.99356 1.62092L8.9303 1.60928L8.86688 1.59821L8.80331 1.58773L8.7396 1.57783L8.67575 1.56851L8.61176 1.55979L8.54765 1.55165L8.48343 1.5441L8.41908 1.53714L8.35464 1.53078L8.29009 1.52501L8.22544 1.51984L8.16071 1.51526L8.0959 1.51128L8.03101 1.5079L7.96606 1.50511L7.90104 1.50293L7.83597 1.50135L7.77085 1.50037L7.70569 1.5L7.6405 1.50023L7.57527 1.50106L7.51002 1.5025L7.44476 1.50454L7.37949 1.50719L7.31421 1.51045L7.24894 1.51431L7.18368 1.51877L7.11843 1.52385L7.05322 1.52953L6.98803 1.53582L6.92287 1.54271L6.85777 1.55022L6.79271 1.55832L6.72771 1.56704L6.66277 1.57636L6.5979 1.58629L6.53311 1.59683L6.46841 1.60797L6.40379 1.61971L6.33927 1.63206L6.27486 1.64501L6.21055 1.65857L6.14636 1.67272L6.0823 1.68748L6.01836 1.70284L5.95456 1.7188L5.89091 1.73536L5.8274 1.75251L5.76405 1.77027L5.70086 1.78861L5.63785 1.80755L5.57501 1.82709L5.51235 1.84721L5.44988 1.86793L5.3876 1.88923L5.32553 1.91112L5.26367 1.9336L5.20202 1.95666L5.14059 1.9803L5.07939 2.00453L5.01843 2.02933L4.9577 2.0547L4.89723 2.08066L4.837 2.10718L4.77704 2.13427L4.71734 2.16194L4.65792 2.19017L4.59877 2.21896L4.53991 2.24831L4.48134 2.27823L4.42307 2.3087L4.3651 2.33972L4.30744 2.3713L4.2501 2.40342L4.19308 2.43609L4.13639 2.4693L4.08003 2.50306L4.02402 2.53735L3.96835 2.57218L3.91303 2.60754L3.85807 2.64343L3.80347 2.67984L3.74925 2.71678L3.6954 2.75423L3.64193 2.7922L3.58885 2.83069L3.53617 2.86968L3.48388 2.90919L3.432 2.94919L3.38053 2.98969L3.32947 3.03069L3.27884 3.07218L3.22863 3.11416L3.17886 3.15662L3.12953 3.19956L3.08064 3.24298L3.03219 3.28688L2.98421 3.33124L2.93668 3.37607L2.88962 3.42135L2.84302 3.4671L2.79691 3.5133L2.75127 3.55994L2.70612 3.60703L2.66146 3.65456L2.6173 3.70253L2.57363 3.75092L2.53048 3.79975L2.48783 3.84899L2.4457 3.89865L2.40409 3.94873L2.363 3.99921L2.32244 4.0501L2.28242 4.10139L2.24294 4.15307L2.204 4.20514L2.1656 4.25759L2.12776 4.31043L2.09048 4.36363L2.05376 4.41721L2.0176 4.47115L1.98201 4.52545L1.947 4.58011L1.91256 4.63512L1.8787 4.69047L1.84544 4.74615L1.81276 4.80217L1.78067 4.85852L1.74918 4.9152L1.7183 4.97218L1.68801 5.02949L1.65834 5.08709L1.62928 5.145L1.60084 5.2032L1.57301 5.2617L1.54581 5.32047L1.51923 5.37953L1.49328 5.43886L1.46797 5.49845L1.44329 5.55831L1.41925 5.61842L1.39585 5.67879L1.3731 5.73939L1.35099 5.80024L1.32954 5.86131L1.30874 5.92261L1.2886 5.98414L1.26911 6.04587L1.25029 6.10781L1.23213 6.16996L1.21464 6.2323L1.19782 6.29484L1.18167 6.35755L1.16619 6.42044L1.15139 6.48351L1.13727 6.54674L1.12383 6.61013L1.11107 6.67367L1.09899 6.73736L1.0876 6.80119L1.0769 6.86515L1.06689 6.92924L1.05757 6.99345L1.04895 7.05777L1.04101 7.12221L1.03378 7.18674L1.02724 7.25137L1.0214 7.3161L1.01627 7.3809L1.01183 7.44578L1.0081 7.51073L1.00506 7.57574L1.00274 7.64081L1.00112 7.70593L1.00021 7.77109L1 7.83629L1.0005 7.90152L1.00171 7.96678L1.00363 8.03205L1.00626 8.09734L1.0096 8.16262L1.01365 8.22791L1.01841 8.29319L1.02388 8.35845L1.03007 8.42369L1.03696 8.4889L1.04456 8.55408L1.05288 8.61921L1.06191 8.68429L1.07165 8.74932L1.08209 8.81429L1.09325 8.87919L1.10512 8.94402L1.1177 9.00876L1.13098 9.07342L1.14498 9.13798L1.15968 9.20244L1.17508 9.26679L1.1912 9.33102L1.20801 9.39514L1.22554 9.45912L1.24376 9.52298L1.26268 9.58669L1.28231 9.65025L1.30263 9.71366L1.32365 9.77691L1.34537 9.83999L1.36778 9.9029L1.39088 9.96563L1.41468 10.0282L1.43916 10.0905L1.46433 10.1527L1.49019 10.2146L1.51673 10.2763L1.54396 10.3378L1.57186 10.3991L1.60044 10.4602L1.6297 10.521L1.65962 10.5816L1.69022 10.6419L1.72149 10.7019L1.75342 10.7617L1.78602 10.8213L1.81928 10.8805L1.85319 10.9395L1.88776 10.9982L1.92298 11.0565L1.95885 11.1146L1.99536 11.1724L2.03252 11.2299L2.07032 11.287L2.10876 11.3438L2.14783 11.4003L2.18752 11.4565L2.22785 11.5123L2.2688 11.5677L2.31037 11.6228L2.35255 11.6776L2.39535 11.7319L2.43875 11.7859L2.48276 11.8395L2.52737 11.8928L2.57258 11.9456L2.61838 11.9981L2.66477 12.0501L2.71174 12.1017L2.7593 12.153L2.80743 12.2038L2.85613 12.2542L2.90541 12.3041L2.95524 12.3536L3.00563 12.4027L3.05658 12.4513L3.10808 12.4995L3.16012 12.5472L3.2127 12.5945L3.26582 12.6413L3.31946 12.6876L3.37364 12.7335L3.42833 12.7788L3.48354 12.8237L3.53926 12.8681L3.59548 12.912L3.65221 12.9553L3.70943 12.9982L3.76714 13.0406L3.82533 13.0824L3.88401 13.1238L3.94315 13.1646L4.00277 13.2048L4.06284 13.2446L4.12337 13.2838L4.18436 13.3224L4.24579 13.3605L4.30765 13.3981L4.36995 13.4351L4.43268 13.4715L4.49583 13.5074L4.5594 13.5427L4.62338 13.5774L4.68776 13.6115L4.75253 13.6451L4.8177 13.6781L4.88326 13.7105L4.94919 13.7422L5.0155 13.7734L5.08217 13.804L5.1492 13.834L5.21658 13.8634L5.28432 13.8922L5.35239 13.9203L5.42079 13.9479L5.48953 13.9748L5.55858 14.0011L5.62795 14.0267L5.69762 14.0518L5.7676 14.0762L5.83787 14.0999L5.90843 14.123L5.97926 14.1455L6.05037 14.1673L6.12175 14.1885L6.19339 14.209L6.26527 14.2289L6.33741 14.2481L6.40978 14.2667L6.48238 14.2846L6.55521 14.3018L6.62825 14.3183L6.7015 14.3342L6.77496 14.3494L6.84861 14.364L6.92245 14.3779L6.99647 14.391L7.07066 14.4035L7.14502 14.4154L7.21954 14.4265L7.29421 14.437L7.36902 14.4467L7.44397 14.4558L7.51906 14.4642L7.59426 14.4719L7.66957 14.4789L7.74499 14.4852L7.82052 14.4909L7.89613 14.4958L7.97183 14.5" stroke="#FB5584" stroke-width="1.3" stroke-linecap="round"/>
</svg>
