<svg width="11" height="13" viewBox="0 0 11 13" fill="none" xmlns="http://www.w3.org/2000/svg">
<path d="M5.5 2.17914L2.81875 4.86039C2.28852 5.39068 1.92743 6.06629 1.78116 6.80179C1.63489 7.53729 1.71 8.29965 1.997 8.99247C2.28399 9.68528 2.76998 10.2774 3.39351 10.6941C4.01703 11.1107 4.7501 11.333 5.5 11.333C6.24991 11.333 6.98297 11.1107 7.6065 10.6941C8.23003 10.2774 8.71601 9.68528 9.00301 8.99247C9.29 8.29965 9.36511 7.53729 9.21884 6.80179C9.07257 6.06629 8.71149 5.39068 8.18125 4.86039L5.5 2.17914ZM5.5 0.647308L8.94717 4.09448C9.62894 4.77626 10.0932 5.6449 10.2813 6.59056C10.4694 7.53621 10.3729 8.51641 10.0039 9.4072C9.63493 10.298 9.01009 11.0593 8.2084 11.595C7.40671 12.1307 6.46418 12.4166 5.5 12.4166C4.53582 12.4166 3.59329 12.1307 2.7916 11.595C1.98992 11.0593 1.36507 10.298 0.996095 9.4072C0.627116 8.51641 0.530571 7.53621 0.71867 6.59056C0.906768 5.6449 1.37106 4.77626 2.05284 4.09448L5.5 0.647308Z" fill="#6493EB"/>
</svg>
